<svg width="24" height="24" viewBox="0 0 24 24" fill="none" xmlns="http://www.w3.org/2000/svg">
<path d="M17.5 17V6.75C17.5 6.33579 17.1642 6 16.75 6C16.3358 6 16 6.33579 16 6.75V17C16 18.933 14.433 20.5 12.5 20.5C10.567 20.5 9 18.933 9 17V5.25C9 4.00736 10.0074 3 11.25 3C12.4926 3 13.5 4.00736 13.5 5.25V15.5C13.5 16.0523 13.0523 16.5 12.5 16.5C11.9477 16.5 11.5 16.0523 11.5 15.5V6.75C11.5 6.33579 11.1642 6 10.75 6C10.3358 6 10 6.33579 10 6.75V15.5C10 16.8807 11.1193 18 12.5 18C13.8807 18 15 16.8807 15 15.5V5.25C15 3.17893 13.3211 1.5 11.25 1.5C9.17893 1.5 7.5 3.17893 7.5 5.25V17C7.5 19.7614 9.73858 22 12.5 22C15.2614 22 17.5 19.7614 17.5 17Z" fill="black"/>
</svg>
