<svg width="24" height="24" viewBox="0 0 24 24" fill="none" xmlns="http://www.w3.org/2000/svg">
<path d="M5.14316 11.1069L11.4028 6.21659C11.5783 6.07947 11.806 6.02812 12.0234 6.07664C12.6437 6.2151 12.8165 7.01702 12.3083 7.3987L6.18182 12L12.3083 16.6013C12.8165 16.9829 12.6437 17.7849 12.0234 17.9233C11.806 17.9719 11.5783 17.9205 11.4027 17.7834L5.14316 12.8931C4.56236 12.4394 4.56235 11.5607 5.14316 11.1069Z" fill="black"/>
<path d="M19.25 12.75H5.81665C5.40244 12.75 5.06665 12.4142 5.06665 12C5.06665 11.5858 5.40244 11.25 5.81665 11.25H19.25C19.6642 11.25 20 11.5858 20 12C20 12.4142 19.6642 12.75 19.25 12.75Z" fill="black"/>
</svg>
