<svg width="24" height="24" viewBox="0 0 24 24" fill="none" xmlns="http://www.w3.org/2000/svg">
<path d="M17 7H7C4.23858 7 2 9.23858 2 12C2 14.7614 4.23858 17 7 17H17C19.7614 17 22 14.7614 22 12C22 9.23858 19.7614 7 17 7Z" stroke="black"/>
<path d="M6.66211 14V9.73438H8.15625C8.67383 9.73438 9.06641 9.83398 9.33398 10.0332C9.60156 10.2305 9.73535 10.5205 9.73535 10.9033C9.73535 11.1123 9.68164 11.2969 9.57422 11.457C9.4668 11.6152 9.31738 11.7314 9.12598 11.8057C9.34473 11.8604 9.5166 11.9707 9.6416 12.1367C9.76855 12.3027 9.83203 12.5059 9.83203 12.7461C9.83203 13.1562 9.70117 13.4668 9.43945 13.6777C9.17773 13.8887 8.80469 13.9961 8.32031 14H6.66211ZM7.54102 12.1426V13.2939H8.29395C8.50098 13.2939 8.66211 13.2451 8.77734 13.1475C8.89453 13.0479 8.95312 12.9111 8.95312 12.7373C8.95312 12.3467 8.75098 12.1484 8.34668 12.1426H7.54102ZM7.54102 11.5215H8.19141C8.63477 11.5137 8.85645 11.3369 8.85645 10.9912C8.85645 10.7979 8.7998 10.6592 8.68652 10.5752C8.5752 10.4893 8.39844 10.4463 8.15625 10.4463H7.54102V11.5215ZM13.998 11.9639C13.998 12.3838 13.9238 12.752 13.7754 13.0684C13.627 13.3848 13.4141 13.6289 13.1367 13.8008C12.8613 13.9727 12.5449 14.0586 12.1875 14.0586C11.834 14.0586 11.5186 13.9736 11.2412 13.8037C10.9639 13.6338 10.749 13.3916 10.5967 13.0771C10.4443 12.7607 10.3672 12.3975 10.3652 11.9873V11.7764C10.3652 11.3564 10.4404 10.9873 10.5908 10.6689C10.7432 10.3486 10.957 10.1035 11.2324 9.93359C11.5098 9.76172 11.8262 9.67578 12.1816 9.67578C12.5371 9.67578 12.8525 9.76172 13.1279 9.93359C13.4053 10.1035 13.6191 10.3486 13.7695 10.6689C13.9219 10.9873 13.998 11.3555 13.998 11.7734V11.9639ZM13.1074 11.7705C13.1074 11.3232 13.0273 10.9834 12.8672 10.751C12.707 10.5186 12.4785 10.4023 12.1816 10.4023C11.8867 10.4023 11.6592 10.5176 11.499 10.748C11.3389 10.9766 11.2578 11.3125 11.2559 11.7559V11.9639C11.2559 12.3994 11.3359 12.7373 11.4961 12.9775C11.6562 13.2178 11.8867 13.3379 12.1875 13.3379C12.4824 13.3379 12.709 13.2227 12.8672 12.9922C13.0254 12.7598 13.1055 12.4219 13.1074 11.9785V11.7705ZM17.5957 10.4463H16.2891V14H15.4102V10.4463H14.1211V9.73438H17.5957V10.4463Z" fill="black"/>
</svg>
