<svg width="24" height="24" viewBox="0 0 24 24" fill="none" xmlns="http://www.w3.org/2000/svg">
<circle cx="12" cy="12" r="8" fill="#606060"/>
<circle cx="12" cy="12" r="7" fill="#989898"/>
<path d="M9.57789 8.21774L15.05 9.68401C15.6553 9.8462 16.0146 10.4684 15.8524 11.0737C15.7628 11.4081 15.5255 11.6832 15.2079 11.821L12.6945 12.9112C12.0071 13.2093 12.0808 14.2073 12.8046 14.4012L14.8577 14.9513C15.3065 15.0716 15.5729 15.5329 15.4526 15.9817C15.3323 16.4305 14.871 16.6969 14.4222 16.5766L8.63555 15.0261C8.0197 14.8611 7.65423 14.228 7.81925 13.6122C7.90606 13.2882 8.12947 13.018 8.43136 12.8719L11.0077 11.6248C11.5955 11.3402 11.5138 10.4784 10.8831 10.3094L9.1424 9.84301C8.6936 9.72276 8.42726 9.26144 8.54751 8.81263C8.66777 8.36383 9.12909 8.09749 9.57789 8.21774Z" fill="#606060"/>
</svg>
