<svg width="24" height="24" viewBox="0 0 24 24" fill="none" xmlns="http://www.w3.org/2000/svg">
<path d="M20.3493 16.0287L13.7483 4.14697C12.9863 2.77535 11.0137 2.77535 10.2517 4.14697L3.65071 16.0287C2.91012 17.3618 3.87406 19 5.39903 19H18.601C20.1259 19 21.0899 17.3618 20.3493 16.0287Z" stroke="black"/>
<path d="M8.08594 17.0001H7.16602L7.17188 16.3673H8.08594C8.33398 16.3673 8.54199 16.3126 8.70996 16.2032C8.87793 16.0919 9.00488 15.9327 9.09082 15.7257C9.17676 15.5167 9.21973 15.2667 9.21973 14.9757V14.756C9.21973 14.5314 9.19531 14.3331 9.14648 14.1613C9.09766 13.9894 9.02539 13.8448 8.92969 13.7277C8.83594 13.6105 8.71973 13.5216 8.58105 13.4611C8.44238 13.4005 8.2832 13.3702 8.10352 13.3702H7.14844V12.7345H8.10352C8.38867 12.7345 8.64844 12.7823 8.88281 12.8781C9.11914 12.9738 9.32324 13.1115 9.49512 13.2911C9.66895 13.4689 9.80176 13.6818 9.89355 13.9298C9.9873 14.1779 10.0342 14.4552 10.0342 14.7618V14.9757C10.0342 15.2804 9.9873 15.5577 9.89355 15.8077C9.80176 16.0558 9.66895 16.2687 9.49512 16.4464C9.32324 16.6241 9.11816 16.7609 8.87988 16.8566C8.6416 16.9523 8.37695 17.0001 8.08594 17.0001ZM7.61719 12.7345V17.0001H6.81152V12.7345H7.61719ZM13.5469 16.3673V17.0001H11.2793V16.3673H13.5469ZM11.5254 12.7345V17.0001H10.7197V12.7345H11.5254ZM13.251 14.4952V15.1134H11.2793V14.4952H13.251ZM13.5381 12.7345V13.3702H11.2793V12.7345H13.5381ZM15.6064 16.1652L16.6699 12.7345H17.5635L16.0576 17.0001H15.4629L15.6064 16.1652ZM14.625 12.7345L15.6826 16.1652L15.835 17.0001H15.2344L13.7344 12.7345H14.625Z" fill="black"/>
</svg>
