<svg width="24" height="25" viewBox="0 0 24 25" fill="none" xmlns="http://www.w3.org/2000/svg">
<path d="M11.1814 17.2855L6.69855 11.5475C6.57284 11.3866 6.52578 11.1779 6.57026 10.9786C6.69718 10.41 7.43227 10.2516 7.78214 10.7174L12 16.3334L16.2178 10.7174C16.5677 10.2516 17.3028 10.41 17.4297 10.9786C17.4742 11.1779 17.4272 11.3866 17.3014 11.5475L12.8187 17.2855C12.4028 17.8179 11.5973 17.8179 11.1814 17.2855Z" fill="black"/>
<path d="M12.6875 4.3542L12.6875 16.6681C12.6875 17.0478 12.3797 17.3556 12 17.3556C11.6203 17.3556 11.3125 17.0478 11.3125 16.6681L11.3125 4.3542C11.3125 3.9745 11.6203 3.6667 12 3.6667C12.3797 3.6667 12.6875 3.9745 12.6875 4.3542Z" fill="black"/>
<path d="M20 22H4C3.44772 22 3 21.5523 3 21V18.75C3 18.3358 3.33579 18 3.75 18C4.16421 18 4.5 18.3358 4.5 18.75V19.4378C4.5 19.9901 4.94772 20.4378 5.5 20.4378H18.5C19.0523 20.4378 19.5 19.9901 19.5 19.4378V18.75C19.5 18.3358 19.8358 18 20.25 18C20.6642 18 21 18.3358 21 18.75V21C21 21.5523 20.5523 22 20 22Z" fill="black"/>
</svg>
