<svg width="24" height="24" viewBox="0 0 24 24" fill="none" xmlns="http://www.w3.org/2000/svg">
<path d="M10.5 13.9996C4.81162 13.9996 3.4376 17.8825 3.1057 19.7584C3.00948 20.3022 3.44772 20.7496 4 20.7496H17C17.5523 20.7496 17.9905 20.3022 17.8943 19.7584C17.5624 17.8825 16.1884 13.9996 10.5 13.9996Z" stroke="black" stroke-width="1.5"/>
<rect x="7.5" y="5.75" width="6" height="6" rx="3" stroke="black" stroke-width="1.5"/>
<path d="M10.2563 14C10.6724 13.7599 11.1416 13.5523 11.6707 13.3894C12.4694 13.1436 13.4047 12.9996 14.5 12.9996C20.1884 12.9996 21.5624 16.8825 21.8943 18.7584C21.9905 19.3022 21.5523 19.7496 21 19.7496H18" stroke="black" stroke-width="1.5"/>
<mask id="mask0_73_282" style="mask-type:alpha" maskUnits="userSpaceOnUse" x="11" y="4" width="8" height="8">
<path d="M13.0303 5.96967L12.9918 5.93115L12.9481 5.8986L12.6105 5.64699C13.1553 5.09264 13.9129 4.75 14.7501 4.75C16.4069 4.75 17.7501 6.09315 17.7501 7.75C17.7501 9.40685 16.4069 10.75 14.7501 10.75C14.3947 10.75 14.0547 10.6885 13.7393 10.5757L14.2073 9.24959L14.25 9.12846V9V7.5V7.18934L14.0303 6.96967L13.0303 5.96967Z" stroke="black" stroke-width="1.5"/>
</mask>
<g mask="url(#mask0_73_282)">
<rect x="11.75" y="4.75" width="6" height="6" rx="3" stroke="black" stroke-width="1.5"/>
</g>
</svg>
