<svg width="24" height="24" viewBox="0 0 24 24" fill="none" xmlns="http://www.w3.org/2000/svg">
<path d="M4 10.2269V20.5C4 20.7761 4.22386 21 4.5 21H9C9.27614 21 9.5 20.7761 9.5 20.5V16.0022C9.5 16.0007 9.50015 15.9993 9.50045 15.9979C10.065 13.2879 13.935 13.2879 14.4996 15.9979C14.4999 15.9993 14.5 16.0007 14.5 16.0022V20.5C14.5 20.7761 14.7239 21 15 21H19.5C19.7761 21 20 20.7761 20 20.5V10.2269C20 10.0827 19.9378 9.94554 19.8293 9.8506L12.3293 3.2881C12.1407 3.12315 11.8593 3.12315 11.6707 3.2881L4.17075 9.8506C4.06224 9.94554 4 10.0827 4 10.2269Z" fill="black" stroke="black" stroke-width="1.53"/>
</svg>
