<svg width="24" height="24" viewBox="0 0 24 24" fill="none" xmlns="http://www.w3.org/2000/svg">
<path d="M7.5625 3H15.1562C15.6222 3 16 3.37776 16 3.84375C16 4.30974 15.6222 4.6875 15.1563 4.6875H8.01136C6.69969 4.6875 5.63636 5.75082 5.63636 7.0625V16.9375C5.63636 18.2492 6.69969 19.3125 8.01136 19.3125H15.1562C15.6222 19.3125 16 19.6903 16 20.1562C16 20.6222 15.6222 21 15.1562 21H7.5625C5.59499 21 4 19.405 4 17.4375V6.5625C4 4.59499 5.59499 3 7.5625 3Z" fill="black"/>
<path d="M20.5713 12.5954L16.3982 15.8556C16.2812 15.947 16.1294 15.9813 15.9845 15.9489C15.5709 15.8566 15.4557 15.322 15.7945 15.0675L19.8788 12L15.7945 8.93249C15.4557 8.67803 15.5709 8.14342 15.9845 8.0511C16.1294 8.01875 16.2812 8.05298 16.3982 8.1444L20.5713 11.4046C20.9585 11.7071 20.9585 12.2929 20.5713 12.5954Z" fill="black"/>
<path d="M11.1666 11.5L20.1222 11.5C20.3983 11.5 20.6222 11.7239 20.6222 12C20.6222 12.2761 20.3983 12.5 20.1222 12.5L11.1666 12.5C10.8905 12.5 10.6666 12.2761 10.6666 12C10.6666 11.7239 10.8905 11.5 11.1666 11.5Z" fill="black"/>
</svg>
