<svg width="24" height="24" viewBox="0 0 24 24" fill="none" xmlns="http://www.w3.org/2000/svg">
<path fill-rule="evenodd" clip-rule="evenodd" d="M14 17H16.75C19.6495 17 22 14.6495 22 11.75V11.1667C22 6.10406 17.8959 2 12.8333 2H11.75C6.36522 2 2 6.36522 2 11.75C2 17.1348 6.36522 21.5 11.75 21.5H14.25C14.9404 21.5 15.5 20.9404 15.5 20.25V19.7143C15.5 19.3198 15.1802 19 14.7857 19H14C13.4477 19 13 18.5523 13 18C13 17.4477 13.4477 17 14 17ZM5.5 13C6.32843 13 7 12.3284 7 11.5C7 10.6716 6.32843 10 5.5 10C4.67157 10 4 10.6716 4 11.5C4 12.3284 4.67157 13 5.5 13ZM9.5 8C10.3284 8 11 7.32843 11 6.5C11 5.67157 10.3284 5 9.5 5C8.67157 5 8 5.67157 8 6.5C8 7.32843 8.67157 8 9.5 8ZM14.5 8C15.3284 8 16 7.32843 16 6.5C16 5.67157 15.3284 5 14.5 5C13.6716 5 13 5.67157 13 6.5C13 7.32843 13.6716 8 14.5 8ZM18.5 13C19.3284 13 20 12.3284 20 11.5C20 10.6716 19.3284 10 18.5 10C17.6716 10 17 10.6716 17 11.5C17 12.3284 17.6716 13 18.5 13Z" fill="black"/>
</svg>
