<svg width="24" height="24" viewBox="0 0 24 24" fill="none" xmlns="http://www.w3.org/2000/svg">
<path d="M10.5484 16.6548C10.1346 17.041 9.47117 16.9539 9.17115 16.4738L7.5 13.8L3 17.85V20.1C3 20.5971 3.40294 21 3.9 21H20.1C20.5971 21 21 20.5971 21 20.1V16.6987L16.5 11.1L10.5484 16.6548Z" fill="black"/>
<path d="M21 16.6987L16.5 11.1L10.5484 16.6548C10.1346 17.041 9.47117 16.9539 9.17115 16.4738L7.5 13.8L3 17.85M21 16.6987V3.9M21 16.6987V20.1M3 3.9C3 3.40294 3.40294 3 3.9 3M3 3.9V3.9C3 3.40294 3.40294 3 3.9 3V3M3 3.9V17.85M3.9 3H20.1M20.1 3C20.5971 3 21 3.40294 21 3.9M20.1 3V3C20.5971 3 21 3.40294 21 3.9V3.9M21 20.1C21 20.5971 20.5971 21 20.1 21M21 20.1V20.1C21 20.5971 20.5971 21 20.1 21V21M20.1 21H3.9C3.40294 21 3 20.5971 3 20.1V17.85" stroke="black" stroke-width="1.35"/>
<circle cx="7" cy="7" r="2" fill="black"/>
</svg>
