<svg width="24" height="24" viewBox="0 0 24 24" fill="none" xmlns="http://www.w3.org/2000/svg">
<path d="M3 7V19C3 19.5523 3.44772 20 4 20H18C18.5523 20 19 19.5523 19 19V7C19 6.44772 18.5523 6 18 6H4C3.44772 6 3 6.44772 3 7Z" stroke="black" stroke-width="1.5"/>
<path d="M6 8C6.55228 8 7 8.44772 7 9C7 9.55228 6.55228 10 6 10C5.44772 10 5 9.55228 5 9C5 8.44772 5.44772 8 6 8Z" fill="black"/>
<path d="M8.5 8H12.5M7 9V9C7 9.55228 6.55228 10 6 10V10C5.44772 10 5 9.55228 5 9V9C5 8.44772 5.44772 8 6 8V8C6.55228 8 7 8.44772 7 9Z" stroke="black"/>
<path d="M8.5 9.5H15" stroke="black" stroke-width="0.5"/>
<path d="M5 11.5H15" stroke="black" stroke-width="0.5"/>
<path d="M16 13H6C5.44772 13 5 13.4477 5 14V19C5 19.5523 5.44772 20 6 20H16C16.5523 20 17 19.5523 17 19V14C17 13.4477 16.5523 13 16 13Z" fill="black" stroke="black" stroke-width="0.5"/>
<path d="M20 18V18C20.5523 18 21 17.5523 21 17V5C21 4.44772 20.5523 4 20 4H6C5.44772 4 5 4.44772 5 5V5" stroke="black" stroke-width="1.5"/>
</svg>
