<svg width="24" height="24" viewBox="0 0 24 24" fill="none" xmlns="http://www.w3.org/2000/svg">
<path fill-rule="evenodd" clip-rule="evenodd" d="M19.159 12C19.159 14.939 17.1669 17.4393 14.3863 18.3659C13.6399 18.6147 12.8367 18.75 12 18.75C11.1633 18.75 10.3601 18.6147 9.61367 18.3659C6.83315 17.4393 4.84102 14.939 4.84102 12C4.84102 9.06104 6.83315 6.56076 9.61367 5.63413C10.3601 5.38539 11.1633 5.25004 12 5.25004C12.8367 5.25004 13.6399 5.38539 14.3863 5.63413C17.1669 6.56076 19.159 9.06104 19.159 12ZM12 15.375C13.9769 15.375 15.5795 13.864 15.5795 12C15.5795 10.1361 13.9769 8.62504 12 8.62504C10.0231 8.62504 8.42051 10.1361 8.42051 12C8.42051 13.864 10.0231 15.375 12 15.375Z" fill="black"/>
<path d="M9.61367 5.63413C10.3601 5.38539 11.1633 5.25004 12 5.25004C12.8367 5.25004 13.6399 5.38539 14.3863 5.63413L13.8905 3.44503C13.8318 3.18549 13.5886 3 13.3071 3H10.6929C10.4114 3 10.1682 3.18549 10.1095 3.44503L9.61367 5.63413Z" fill="black"/>
<path d="M12 18.75C11.1633 18.75 10.3601 18.6147 9.61367 18.3659L10.1095 20.555C10.1682 20.8145 10.4114 21 10.6929 21H13.3071C13.5886 21 13.8318 20.8145 13.8905 20.555L14.3863 18.3659C13.6399 18.6147 12.8367 18.75 12 18.75Z" fill="black"/>
<path fill-rule="evenodd" clip-rule="evenodd" d="M15.5795 6.15436C18.279 7.62386 19.5794 10.5007 19.0402 13.2344C18.8955 13.9683 18.6182 14.6918 18.1999 15.375C17.7815 16.0583 17.2556 16.6465 16.6539 17.1315C14.4125 18.9387 11.12 19.3152 8.42052 17.8457C5.72107 16.3762 4.42062 13.4994 4.95978 10.7656C5.10451 10.0318 5.38179 9.30827 5.80016 8.62504C6.21852 7.9418 6.74444 7.35362 7.3461 6.86852C9.58748 5.0614 12.88 4.68487 15.5795 6.15436ZM15.0999 13.6875C16.0884 12.0733 15.5018 10.0092 13.7898 9.0772C12.0777 8.14522 9.88853 8.6983 8.90009 10.3125C7.91164 11.9268 8.49822 13.9909 10.2103 14.9229C11.9223 15.8549 14.1115 15.3018 15.0999 13.6875Z" fill="black"/>
<path d="M4.95978 10.7656C5.10451 10.0318 5.38179 9.30827 5.80016 8.62504C6.21852 7.9418 6.74444 7.35362 7.3461 6.86852L5.08753 6.17881C4.81975 6.09704 4.52779 6.20286 4.38706 6.4327L3.07995 8.56734C2.93921 8.79717 2.988 9.08848 3.19699 9.26625L4.95978 10.7656Z" fill="black"/>
<path d="M18.1999 15.375C17.7815 16.0583 17.2556 16.6465 16.6539 17.1315L18.9124 17.8212C19.1802 17.903 19.4722 17.7972 19.6129 17.5673L20.92 15.4327C21.0607 15.2029 21.012 14.9115 20.803 14.7338L19.0402 13.2344C18.8955 13.9683 18.6182 14.6918 18.1999 15.375Z" fill="black"/>
<path fill-rule="evenodd" clip-rule="evenodd" d="M15.5795 17.8457C12.88 19.3152 9.58745 18.9386 7.34608 17.1315C6.74442 16.6464 6.2185 16.0582 5.80014 15.375C5.38177 14.6918 5.10449 13.9682 4.95976 13.2344C4.4206 10.5006 5.72105 7.62383 8.4205 6.15433C11.12 4.68483 14.4125 5.06136 16.6539 6.86849C17.2556 7.35359 17.7815 7.94177 18.1998 8.625C18.6182 9.30824 18.8955 10.0318 19.0402 10.7656C19.5794 13.4994 18.2789 16.3762 15.5795 17.8457ZM8.90006 13.6875C9.88851 15.3017 12.0777 15.8548 13.7897 14.9228C15.5018 13.9909 16.0884 11.9267 15.0999 10.3125C14.1115 8.69827 11.9223 8.14518 10.2102 9.07717C8.4982 10.0091 7.91162 12.0733 8.90006 13.6875Z" fill="black"/>
<path d="M16.6539 6.86849C17.2556 7.35359 17.7815 7.94177 18.1998 8.625C18.6182 9.30824 18.8955 10.0318 19.0402 10.7656L20.803 9.26622C21.012 9.08845 21.0608 8.79714 20.92 8.5673L19.6129 6.43266C19.4722 6.20283 19.1802 6.09701 18.9125 6.17878L16.6539 6.86849Z" fill="black"/>
<path d="M5.80014 15.375C5.38177 14.6918 5.10449 13.9682 4.95976 13.2344L3.19704 14.7337C2.98805 14.9115 2.93926 15.2028 3.08 15.4327L4.38711 17.5673C4.52784 17.7971 4.8198 17.903 5.08758 17.8212L7.34608 17.1315C6.74442 16.6464 6.2185 16.0582 5.80014 15.375Z" fill="black"/>
</svg>
