<svg width="24" height="24" viewBox="0 0 24 24" fill="none" xmlns="http://www.w3.org/2000/svg">
<path d="M19.2 12C19.6418 12 20.0041 12.3591 19.96 12.7987C19.8085 14.3094 19.2293 15.7518 18.2825 16.9528C17.1701 18.3639 15.6149 19.3595 13.8676 19.779C12.1203 20.1984 10.2826 20.0175 8.65072 19.2651C7.01883 18.5128 5.68775 17.233 4.87195 15.6319C4.05615 14.0308 3.80315 12.2017 4.15372 10.4393C4.50429 8.67686 5.438 7.08378 6.80441 5.91675C8.17083 4.74973 9.89035 4.07672 11.6859 4.00617C13.214 3.94613 14.7214 4.32539 16.0326 5.09073C16.4142 5.31345 16.4918 5.81763 16.2321 6.17508V6.17508C15.9724 6.53252 15.474 6.60678 15.0869 6.39367C14.0711 5.83433 12.9175 5.55901 11.7487 5.60493C10.3123 5.66137 8.93666 6.19978 7.84353 7.1334C6.7504 8.06702 6.00343 9.34148 5.72297 10.7514C5.44252 12.1614 5.64492 13.6247 6.29756 14.9055C6.9502 16.1864 8.01507 17.2103 9.32058 17.8121C10.6261 18.414 12.0962 18.5588 13.4941 18.2232C14.8919 17.8876 16.136 17.0911 17.026 15.9622C17.7501 15.0437 18.2055 13.9485 18.3501 12.7979C18.4052 12.3596 18.7582 12 19.2 12V12Z" fill="black"/>
</svg>
